solid patch0
  facet normal -1.37665e-22 -2.17955e-16 -1
    outer loop
       vertex 0.00748511 -0.00663123 1.44531e-18
       vertex 0.00568065 -0.00822984 1.79374e-18
       vertex 0.00885456 -0.00464723 1.01289e-18
    endloop
  endfacet
  facet normal -1.37665e-22 -2.17955e-16 -1
    outer loop
       vertex -0.00568065 0.00822984 -1.79374e-18
       vertex -0.00885456 0.00464723 -1.01289e-18
       vertex -0.00748511 0.00663123 -1.44531e-18
    endloop
  endfacet
  facet normal 4.75087e-23 -2.17955e-16 -1
    outer loop
       vertex -0.00885456 0.00464723 -1.01289e-18
       vertex -0.01 -1.01064e-17 2.20275e-33
       vertex -0.00970942 0.00239316 -5.21601e-19
    endloop
  endfacet
  facet normal -0 -2.17955e-16 -1
    outer loop
       vertex 0.00120537 -0.00992709 2.16366e-18
       vertex -0.00120537 -0.00992709 2.16366e-18
       vertex 0.00354605 -0.00935016 2.03792e-18
    endloop
  endfacet
  facet normal -4.75087e-23 -2.17955e-16 -1
    outer loop
       vertex -0.01 -1.01064e-17 2.20275e-33
       vertex -0.00885456 -0.00464723 1.01289e-18
       vertex -0.00970942 -0.00239316 5.21601e-19
    endloop
  endfacet
  facet normal -5.24981e-23 -2.17955e-16 -1
    outer loop
       vertex -0.00354605 0.00935016 -2.03792e-18
       vertex -0.00885456 -0.00464723 1.01289e-18
       vertex -0.00568065 0.00822984 -1.79374e-18
    endloop
  endfacet
  facet normal 4.24971e-23 -2.17955e-16 -1
    outer loop
       vertex -0.00120537 0.00992709 -2.16366e-18
       vertex -0.00885456 -0.00464723 1.01289e-18
       vertex -0.00354605 0.00935016 -2.03792e-18
    endloop
  endfacet
  facet normal -0 -2.17955e-16 -1
    outer loop
       vertex 0.00120537 0.00992709 -2.16366e-18
       vertex -0.00885456 -0.00464723 1.01289e-18
       vertex -0.00120537 0.00992709 -2.16366e-18
    endloop
  endfacet
  facet normal -3.162e-23 -2.17955e-16 -1
    outer loop
       vertex 0.00354605 0.00935016 -2.03792e-18
       vertex -0.00885456 -0.00464723 1.01289e-18
       vertex 0.00120537 0.00992709 -2.16366e-18
    endloop
  endfacet
  facet normal 2.87027e-23 -2.17955e-16 -1
    outer loop
       vertex 0.00568065 0.00822984 -1.79374e-18
       vertex -0.00885456 -0.00464723 1.01289e-18
       vertex 0.00354605 0.00935016 -2.03792e-18
    endloop
  endfacet
  facet normal 1.69052e-23 -2.17955e-16 -1
    outer loop
       vertex 0.00748511 0.00663123 -1.44531e-18
       vertex -0.00885456 -0.00464723 1.01289e-18
       vertex 0.00568065 0.00822984 -1.79374e-18
    endloop
  endfacet
  facet normal -7.85175e-24 -2.17955e-16 -1
    outer loop
       vertex 0.00885456 0.00464723 -1.01289e-18
       vertex -0.00885456 -0.00464723 1.01289e-18
       vertex 0.00748511 0.00663123 -1.44531e-18
    endloop
  endfacet
  facet normal -2.76104e-24 -2.17955e-16 -1
    outer loop
       vertex 0.00970942 0.00239316 -5.21601e-19
       vertex -0.00885456 -0.00464723 1.01289e-18
       vertex 0.00885456 0.00464723 -1.01289e-18
    endloop
  endfacet
  facet normal -7.4017e-24 -2.17955e-16 -1
    outer loop
       vertex -0.00568065 0.00822984 -1.79374e-18
       vertex -0.00885456 -0.00464723 1.01289e-18
       vertex -0.00885456 0.00464723 -1.01289e-18
    endloop
  endfacet
  facet normal 1.67714e-31 -2.17955e-16 -1
    outer loop
       vertex -0.00885456 0.00464723 -1.01289e-18
       vertex -0.00885456 -0.00464723 1.01289e-18
       vertex -0.01 -1.01064e-17 2.20275e-33
    endloop
  endfacet
  facet normal -1.09869e-22 -2.17956e-16 -1
    outer loop
       vertex -0.00354605 -0.00935016 2.03792e-18
       vertex -0.00568065 -0.00822984 1.79374e-18
       vertex -0.00120537 -0.00992709 2.16366e-18
    endloop
  endfacet
  facet normal 4.78608e-24 -2.17955e-16 -1
    outer loop
       vertex 0.00970942 -0.00239316 5.21601e-19
       vertex -0.00748511 -0.00663123 1.44531e-18
       vertex 0.01 0 0
    endloop
  endfacet
  facet normal 1.79114e-24 -2.17955e-16 -1
    outer loop
       vertex 0.00885456 -0.00464723 1.01289e-18
       vertex -0.00748511 -0.00663123 1.44531e-18
       vertex 0.00970942 -0.00239316 5.21601e-19
    endloop
  endfacet
  facet normal -4.82425e-24 -2.17955e-16 -1
    outer loop
       vertex 0.00354605 -0.00935016 2.03792e-18
       vertex -0.00748511 -0.00663123 1.44531e-18
       vertex 0.00568065 -0.00822984 1.79374e-18
    endloop
  endfacet
  facet normal 4.36469e-24 -2.17955e-16 -1
    outer loop
       vertex 0.01 0 0
       vertex -0.00748511 -0.00663123 1.44531e-18
       vertex 0.00970942 0.00239316 -5.21601e-19
    endloop
  endfacet
  facet normal 3.66502e-24 -2.17955e-16 -1
    outer loop
       vertex 0.00568065 -0.00822984 1.79374e-18
       vertex -0.00748511 -0.00663123 1.44531e-18
       vertex 0.00885456 -0.00464723 1.01289e-18
    endloop
  endfacet
  facet normal -6.73256e-24 -2.17955e-16 -1
    outer loop
       vertex 0.00970942 0.00239316 -5.21601e-19
       vertex -0.00748511 -0.00663123 1.44531e-18
       vertex -0.00885456 -0.00464723 1.01289e-18
    endloop
  endfacet
  facet normal 1.68921e-23 -2.17955e-16 -1
    outer loop
       vertex -0.00120537 -0.00992709 2.16366e-18
       vertex -0.00748511 -0.00663123 1.44531e-18
       vertex 0.00354605 -0.00935016 2.03792e-18
    endloop
  endfacet
  facet normal -2.08482e-23 -2.17955e-16 -1
    outer loop
       vertex -0.00568065 -0.00822984 1.79374e-18
       vertex -0.00748511 -0.00663123 1.44531e-18
       vertex -0.00120537 -0.00992709 2.16366e-18
    endloop
  endfacet
  facet normal 0.824683 -0.100135 -0.556661
    outer loop
       vertex 0.01 0 0
       vertex 0.019 -2.96059e-18 0.0133333
       vertex 0.00970942 -0.00239316 5.21601e-19
    endloop
  endfacet
  facet normal 0.824683 -0.100135 -0.556661
    outer loop
       vertex 0.037 -8.88178e-18 0.04
       vertex 0.0359248 -0.00885468 0.04
       vertex 0.028 -5.92119e-18 0.0266667
    endloop
  endfacet
  facet normal 0.824683 0.100135 -0.556661
    outer loop
       vertex 0.00970942 0.00239316 -5.21601e-19
       vertex 0.019 -2.96059e-18 0.0133333
       vertex 0.01 0 0
    endloop
  endfacet
  facet normal 0.824683 0.100135 -0.556661
    outer loop
       vertex 0.0359248 0.00885468 0.04
       vertex 0.037 -8.88178e-18 0.04
       vertex 0.028 -5.92119e-18 0.0266667
    endloop
  endfacet
  facet normal 0.773836 -0.293477 -0.561293
    outer loop
       vertex 0.00970942 -0.00239316 5.21601e-19
       vertex 0.0173574 -0.007728 0.0133333
       vertex 0.00885456 -0.00464723 1.01289e-18
    endloop
  endfacet
  facet normal 0.688107 -0.474966 -0.548558
    outer loop
       vertex 0.00885456 -0.00464723 1.01289e-18
       vertex 0.0173574 -0.007728 0.0133333
       vertex 0.00748511 -0.00663123 1.44531e-18
    endloop
  endfacet
  facet normal 0.822275 -0.17478 -0.541586
    outer loop
       vertex 0.019 -2.96059e-18 0.0133333
       vertex 0.0173574 -0.007728 0.0133333
       vertex 0.00970942 -0.00239316 5.21601e-19
    endloop
  endfacet
  facet normal 0.548246 -0.618842 -0.562549
    outer loop
       vertex 0.00748511 -0.00663123 1.44531e-18
       vertex 0.0127135 -0.0141198 0.0133333
       vertex 0.00568065 -0.00822984 1.79374e-18
    endloop
  endfacet
  facet normal 0.679133 -0.493419 -0.54343
    outer loop
       vertex 0.0173574 -0.007728 0.0133333
       vertex 0.0127135 -0.0141198 0.0133333
       vertex 0.00748511 -0.00663123 1.44531e-18
    endloop
  endfacet
  facet normal 0.781053 -0.296214 -0.549739
    outer loop
       vertex 0.0327619 -0.0171948 0.04
       vertex 0.0255793 -0.0113886 0.0266667
       vertex 0.0359248 -0.00885468 0.04
    endloop
  endfacet
  facet normal 0.677158 -0.467408 -0.568319
    outer loop
       vertex 0.0276949 -0.0245355 0.04
       vertex 0.0255793 -0.0113886 0.0266667
       vertex 0.0327619 -0.0171948 0.04
    endloop
  endfacet
  facet normal 0.816278 -0.173505 -0.550987
    outer loop
       vertex 0.028 -5.92119e-18 0.0266667
       vertex 0.0255793 -0.0113886 0.0266667
       vertex 0.019 -2.96059e-18 0.0133333
    endloop
  endfacet
  facet normal 0.794008 -0.168771 -0.58401
    outer loop
       vertex 0.0359248 -0.00885468 0.04
       vertex 0.0255793 -0.0113886 0.0266667
       vertex 0.028 -5.92119e-18 0.0266667
    endloop
  endfacet
  facet normal 0.816277 -0.173505 -0.550987
    outer loop
       vertex 0.019 -2.96059e-18 0.0133333
       vertex 0.0255793 -0.0113886 0.0266667
       vertex 0.0173574 -0.007728 0.0133333
    endloop
  endfacet
  facet normal 0.387839 -0.738966 -0.550917
    outer loop
       vertex 0.00568065 -0.00822984 1.79374e-18
       vertex 0.00587132 -0.0180701 0.0133333
       vertex 0.00354605 -0.00935016 2.03792e-18
    endloop
  endfacet
  facet normal 0.198198 -0.80412 -0.560454
    outer loop
       vertex 0.00354605 -0.00935016 2.03792e-18
       vertex 0.00587132 -0.0180701 0.0133333
       vertex 0.00120537 -0.00992709 2.16366e-18
    endloop
  endfacet
  facet normal 0.419932 -0.727343 -0.542797
    outer loop
       vertex 0.0127135 -0.0141198 0.0133333
       vertex 0.00587132 -0.0180701 0.0133333
       vertex 0.00568065 -0.00822984 1.79374e-18
    endloop
  endfacet
  facet normal 0.554762 -0.626197 -0.547829
    outer loop
       vertex 0.0210184 -0.0304504 0.04
       vertex 0.0187357 -0.0208081 0.0266667
       vertex 0.0276949 -0.0245355 0.04
    endloop
  endfacet
  facet normal 0.675136 -0.490515 -0.550987
    outer loop
       vertex 0.0173574 -0.007728 0.0133333
       vertex 0.0187357 -0.0208081 0.0266667
       vertex 0.0127135 -0.0141198 0.0133333
    endloop
  endfacet
  facet normal 0.675136 -0.490515 -0.550987
    outer loop
       vertex 0.0255793 -0.0113886 0.0266667
       vertex 0.0187357 -0.0208081 0.0266667
       vertex 0.0173574 -0.007728 0.0133333
    endloop
  endfacet
  facet normal 0.660302 -0.479737 -0.577801
    outer loop
       vertex 0.0276949 -0.0245355 0.04
       vertex 0.0187357 -0.0208081 0.0266667
       vertex 0.0255793 -0.0113886 0.0266667
    endloop
  endfacet
  facet normal -0 -0.829747 -0.558139
    outer loop
       vertex 0.00120537 -0.00992709 2.16366e-18
       vertex -0.00198604 -0.0188959 0.0133333
       vertex -0.00120537 -0.00992709 2.16366e-18
    endloop
  endfacet
  facet normal -0.19908 -0.8077 -0.554966
    outer loop
       vertex -0.00120537 -0.00992709 2.16366e-18
       vertex -0.00198604 -0.0188959 0.0133333
       vertex -0.00354605 -0.00935016 2.03792e-18
    endloop
  endfacet
  facet normal 0.087883 -0.836152 -0.541412
    outer loop
       vertex 0.00587132 -0.0180701 0.0133333
       vertex -0.00198604 -0.0188959 0.0133333
       vertex 0.00120537 -0.00992709 2.16366e-18
    endloop
  endfacet
  facet normal 0.383444 -0.730592 -0.564983
    outer loop
       vertex 0.0131204 -0.0345956 0.04
       vertex 0.00865248 -0.0266296 0.0266667
       vertex 0.0210184 -0.0304504 0.04
    endloop
  endfacet
  facet normal 0.199709 -0.810252 -0.551007
    outer loop
       vertex 0.00445986 -0.0367302 0.04
       vertex 0.00865248 -0.0266296 0.0266667
       vertex 0.0131204 -0.0345956 0.04
    endloop
  endfacet
  facet normal 0.417257 -0.72271 -0.550987
    outer loop
       vertex 0.0127135 -0.0141198 0.0133333
       vertex 0.00865248 -0.0266296 0.0266667
       vertex 0.00587132 -0.0180701 0.0133333
    endloop
  endfacet
  facet normal 0.417257 -0.72271 -0.550987
    outer loop
       vertex 0.0187357 -0.0208081 0.0266667
       vertex 0.00865248 -0.0266296 0.0266667
       vertex 0.0127135 -0.0141198 0.0133333
    endloop
  endfacet
  facet normal 0.407327 -0.705512 -0.579946
    outer loop
       vertex 0.0210184 -0.0304504 0.04
       vertex 0.00865248 -0.0266296 0.0266667
       vertex 0.0187357 -0.0208081 0.0266667
    endloop
  endfacet
  facet normal -0.384415 -0.732441 -0.561921
    outer loop
       vertex -0.00354605 -0.00935016 2.03792e-18
       vertex -0.0095 -0.0164545 0.0133333
       vertex -0.00568065 -0.00822984 1.79374e-18
    endloop
  endfacet
  facet normal -0.555567 -0.627105 -0.545972
    outer loop
       vertex -0.00568065 -0.00822984 1.79374e-18
       vertex -0.0095 -0.0164545 0.0133333
       vertex -0.00748511 -0.00663123 1.44531e-18
    endloop
  endfacet
  facet normal -0.259716 -0.799324 -0.541875
    outer loop
       vertex -0.00198604 -0.0188959 0.0133333
       vertex -0.0095 -0.0164545 0.0133333
       vertex -0.00354605 -0.00935016 2.03792e-18
    endloop
  endfacet
  facet normal 0 -0.832202 -0.554472
    outer loop
       vertex -0.00445986 -0.0367302 0.04
       vertex -0.0029268 -0.0278466 0.0266667
       vertex 0.00445986 -0.0367302 0.04
    endloop
  endfacet
  facet normal -0.198409 -0.804978 -0.559146
    outer loop
       vertex -0.0131204 -0.0345956 0.04
       vertex -0.0029268 -0.0278466 0.0266667
       vertex -0.00445986 -0.0367302 0.04
    endloop
  endfacet
  facet normal 0.0848072 -0.806886 -0.584588
    outer loop
       vertex 0.00445986 -0.0367302 0.04
       vertex -0.0029268 -0.0278466 0.0266667
       vertex 0.00865248 -0.0266296 0.0266667
    endloop
  endfacet
  facet normal 0.0872305 -0.829942 -0.550987
    outer loop
       vertex 0.00865248 -0.0266296 0.0266667
       vertex -0.0029268 -0.0278466 0.0266667
       vertex 0.00587132 -0.0180701 0.0133333
    endloop
  endfacet
  facet normal 0.0872303 -0.829942 -0.550987
    outer loop
       vertex 0.00587132 -0.0180701 0.0133333
       vertex -0.0029268 -0.0278466 0.0266667
       vertex -0.00198604 -0.0188959 0.0133333
    endloop
  endfacet
  facet normal -0.680531 -0.469736 -0.56234
    outer loop
       vertex -0.00748511 -0.00663123 1.44531e-18
       vertex -0.0153713 -0.0111679 0.0133333
       vertex -0.00885456 -0.00464723 1.01289e-18
    endloop
  endfacet
  facet normal -0.561381 -0.623477 -0.544177
    outer loop
       vertex -0.0095 -0.0164545 0.0133333
       vertex -0.0153713 -0.0111679 0.0133333
       vertex -0.00748511 -0.00663123 1.44531e-18
    endloop
  endfacet
  facet normal -0.251057 -0.772675 -0.583046
    outer loop
       vertex -0.0131204 -0.0345956 0.04
       vertex -0.014 -0.0242487 0.0266667
       vertex -0.0029268 -0.0278466 0.0266667
    endloop
  endfacet
  facet normal -0.388492 -0.740209 -0.548785
    outer loop
       vertex -0.0210184 -0.0304504 0.04
       vertex -0.014 -0.0242487 0.0266667
       vertex -0.0131204 -0.0345956 0.04
    endloop
  endfacet
  facet normal -0.543964 -0.614009 -0.571924
    outer loop
       vertex -0.0276949 -0.0245355 0.04
       vertex -0.014 -0.0242487 0.0266667
       vertex -0.0210184 -0.0304504 0.04
    endloop
  endfacet
  facet normal -0.257879 -0.79367 -0.550987
    outer loop
       vertex -0.00198604 -0.0188959 0.0133333
       vertex -0.014 -0.0242487 0.0266667
       vertex -0.0095 -0.0164545 0.0133333
    endloop
  endfacet
  facet normal -0.257879 -0.79367 -0.550987
    outer loop
       vertex -0.0029268 -0.0278466 0.0266667
       vertex -0.014 -0.0242487 0.0266667
       vertex -0.00198604 -0.0188959 0.0133333
    endloop
  endfacet
  facet normal -0.779006 -0.295438 -0.553052
    outer loop
       vertex -0.00885456 -0.00464723 1.01289e-18
       vertex -0.0185848 -0.00395032 0.0133333
       vertex -0.00970942 -0.00239316 5.21601e-19
    endloop
  endfacet
  facet normal -0.822852 -0.0999123 -0.559403
    outer loop
       vertex -0.00970942 -0.00239316 5.21601e-19
       vertex -0.0185848 -0.00395032 0.0133333
       vertex -0.01 -1.01064e-17 2.20275e-33
    endloop
  endfacet
  facet normal -0.76756 -0.34174 -0.542279
    outer loop
       vertex -0.0153713 -0.0111679 0.0133333
       vertex -0.0185848 -0.00395032 0.0133333
       vertex -0.00885456 -0.00464723 1.01289e-18
    endloop
  endfacet
  facet normal -0.762366 -0.339427 -0.550987
    outer loop
       vertex -0.0153713 -0.0111679 0.0133333
       vertex -0.0226525 -0.016458 0.0266667
       vertex -0.0185848 -0.00395032 0.0133333
    endloop
  endfacet
  facet normal -0.688328 -0.475119 -0.548148
    outer loop
       vertex -0.0327619 -0.0171948 0.04
       vertex -0.0226525 -0.016458 0.0266667
       vertex -0.0276949 -0.0245355 0.04
    endloop
  endfacet
  facet normal -0.558399 -0.620164 -0.550987
    outer loop
       vertex -0.0095 -0.0164545 0.0133333
       vertex -0.0226525 -0.016458 0.0266667
       vertex -0.0153713 -0.0111679 0.0133333
    endloop
  endfacet
  facet normal -0.547333 -0.607875 -0.575252
    outer loop
       vertex -0.0276949 -0.0245355 0.04
       vertex -0.0226525 -0.016458 0.0266667
       vertex -0.014 -0.0242487 0.0266667
    endloop
  endfacet
  facet normal -0.558399 -0.620164 -0.550987
    outer loop
       vertex -0.014 -0.0242487 0.0266667
       vertex -0.0226525 -0.016458 0.0266667
       vertex -0.0095 -0.0164545 0.0133333
    endloop
  endfacet
  facet normal -0.822852 0.0999123 -0.559403
    outer loop
       vertex -0.01 -1.01064e-17 2.20275e-33
       vertex -0.0185848 0.00395032 0.0133333
       vertex -0.00970942 0.00239316 -5.21601e-19
    endloop
  endfacet
  facet normal -0.779006 0.295438 -0.553052
    outer loop
       vertex -0.00970942 0.00239316 -5.21601e-19
       vertex -0.0185848 0.00395032 0.0133333
       vertex -0.00885456 0.00464723 -1.01289e-18
    endloop
  endfacet
  facet normal -0.840795 0 -0.541354
    outer loop
       vertex -0.0185848 -0.00395032 0.0133333
       vertex -0.0185848 0.00395032 0.0133333
       vertex -0.01 -1.01064e-17 2.20275e-33
    endloop
  endfacet
  facet normal -0.743086 -0.330843 -0.581693
    outer loop
       vertex -0.0327619 -0.0171948 0.04
       vertex -0.0273881 -0.00582153 0.0266667
       vertex -0.0226525 -0.016458 0.0266667
    endloop
  endfacet
  facet normal -0.773436 -0.293326 -0.561923
    outer loop
       vertex -0.0359248 -0.00885468 0.04
       vertex -0.0273881 -0.00582153 0.0266667
       vertex -0.0327619 -0.0171948 0.04
    endloop
  endfacet
  facet normal -0.827379 -0.100462 -0.552586
    outer loop
       vertex -0.037 -2.84756e-17 0.04
       vertex -0.0273881 -0.00582153 0.0266667
       vertex -0.0359248 -0.00885468 0.04
    endloop
  endfacet
  facet normal -0.762366 -0.339427 -0.550987
    outer loop
       vertex -0.0226525 -0.016458 0.0266667
       vertex -0.0273881 -0.00582153 0.0266667
       vertex -0.0185848 -0.00395032 0.0133333
    endloop
  endfacet
  facet normal -0.680531 0.469736 -0.56234
    outer loop
       vertex -0.00885456 0.00464723 -1.01289e-18
       vertex -0.0153713 0.0111679 0.0133333
       vertex -0.00748511 0.00663123 -1.44531e-18
    endloop
  endfacet
  facet normal -0.76756 0.34174 -0.542279
    outer loop
       vertex -0.0185848 0.00395032 0.0133333
       vertex -0.0153713 0.0111679 0.0133333
       vertex -0.00885456 0.00464723 -1.01289e-18
    endloop
  endfacet
  facet normal -0.811192 -4.82213e-17 -0.58478
    outer loop
       vertex -0.037 -2.84756e-17 0.04
       vertex -0.0273881 0.00582153 0.0266667
       vertex -0.0273881 -0.00582153 0.0266667
    endloop
  endfacet
  facet normal -0.762366 0.339427 -0.550987
    outer loop
       vertex -0.0185848 0.00395032 0.0133333
       vertex -0.0273881 0.00582153 0.0266667
       vertex -0.0153713 0.0111679 0.0133333
    endloop
  endfacet
  facet normal -0.834514 0 -0.550987
    outer loop
       vertex -0.0273881 -0.00582153 0.0266667
       vertex -0.0273881 0.00582153 0.0266667
       vertex -0.0185848 -0.00395032 0.0133333
    endloop
  endfacet
  facet normal -0.827379 0.100462 -0.552586
    outer loop
       vertex -0.0359248 0.00885468 0.04
       vertex -0.0273881 0.00582153 0.0266667
       vertex -0.037 -2.84756e-17 0.04
    endloop
  endfacet
  facet normal -0.773436 0.293326 -0.561923
    outer loop
       vertex -0.0327619 0.0171948 0.04
       vertex -0.0273881 0.00582153 0.0266667
       vertex -0.0359248 0.00885468 0.04
    endloop
  endfacet
  facet normal -0.834514 0 -0.550987
    outer loop
       vertex -0.0185848 -0.00395032 0.0133333
       vertex -0.0273881 0.00582153 0.0266667
       vertex -0.0185848 0.00395032 0.0133333
    endloop
  endfacet
  facet normal -0.555567 0.627105 -0.545972
    outer loop
       vertex -0.00748511 0.00663123 -1.44531e-18
       vertex -0.0095 0.0164545 0.0133333
       vertex -0.00568065 0.00822984 -1.79374e-18
    endloop
  endfacet
  facet normal -0.384415 0.732441 -0.561921
    outer loop
       vertex -0.00568065 0.00822984 -1.79374e-18
       vertex -0.0095 0.0164545 0.0133333
       vertex -0.00354605 0.00935016 -2.03792e-18
    endloop
  endfacet
  facet normal -0.561381 0.623477 -0.544177
    outer loop
       vertex -0.0153713 0.0111679 0.0133333
       vertex -0.0095 0.0164545 0.0133333
       vertex -0.00748511 0.00663123 -1.44531e-18
    endloop
  endfacet
  facet normal -0.688328 0.475119 -0.548148
    outer loop
       vertex -0.0276949 0.0245355 0.04
       vertex -0.0226525 0.016458 0.0266667
       vertex -0.0327619 0.0171948 0.04
    endloop
  endfacet
  facet normal -0.743086 0.330843 -0.581693
    outer loop
       vertex -0.0327619 0.0171948 0.04
       vertex -0.0226525 0.016458 0.0266667
       vertex -0.0273881 0.00582153 0.0266667
    endloop
  endfacet
  facet normal -0.762366 0.339427 -0.550987
    outer loop
       vertex -0.0273881 0.00582153 0.0266667
       vertex -0.0226525 0.016458 0.0266667
       vertex -0.0153713 0.0111679 0.0133333
    endloop
  endfacet
  facet normal -0.19908 0.8077 -0.554966
    outer loop
       vertex -0.00354605 0.00935016 -2.03792e-18
       vertex -0.00198604 0.0188959 0.0133333
       vertex -0.00120537 0.00992709 -2.16366e-18
    endloop
  endfacet
  facet normal 0 0.829747 -0.558139
    outer loop
       vertex -0.00120537 0.00992709 -2.16366e-18
       vertex -0.00198604 0.0188959 0.0133333
       vertex 0.00120537 0.00992709 -2.16366e-18
    endloop
  endfacet
  facet normal -0.259716 0.799324 -0.541875
    outer loop
       vertex -0.0095 0.0164545 0.0133333
       vertex -0.00198604 0.0188959 0.0133333
       vertex -0.00354605 0.00935016 -2.03792e-18
    endloop
  endfacet
  facet normal -0.543964 0.614009 -0.571924
    outer loop
       vertex -0.0210184 0.0304504 0.04
       vertex -0.014 0.0242487 0.0266667
       vertex -0.0276949 0.0245355 0.04
    endloop
  endfacet
  facet normal -0.388492 0.740209 -0.548785
    outer loop
       vertex -0.0131204 0.0345956 0.04
       vertex -0.014 0.0242487 0.0266667
       vertex -0.0210184 0.0304504 0.04
    endloop
  endfacet
  facet normal -0.547333 0.607875 -0.575252
    outer loop
       vertex -0.0276949 0.0245355 0.04
       vertex -0.014 0.0242487 0.0266667
       vertex -0.0226525 0.016458 0.0266667
    endloop
  endfacet
  facet normal -0.558399 0.620164 -0.550987
    outer loop
       vertex -0.0153713 0.0111679 0.0133333
       vertex -0.014 0.0242487 0.0266667
       vertex -0.0095 0.0164545 0.0133333
    endloop
  endfacet
  facet normal -0.558399 0.620164 -0.550987
    outer loop
       vertex -0.0226525 0.016458 0.0266667
       vertex -0.014 0.0242487 0.0266667
       vertex -0.0153713 0.0111679 0.0133333
    endloop
  endfacet
  facet normal 0.198198 0.80412 -0.560454
    outer loop
       vertex 0.00120537 0.00992709 -2.16366e-18
       vertex 0.00587132 0.0180701 0.0133333
       vertex 0.00354605 0.00935016 -2.03792e-18
    endloop
  endfacet
  facet normal 0.387839 0.738966 -0.550917
    outer loop
       vertex 0.00354605 0.00935016 -2.03792e-18
       vertex 0.00587132 0.0180701 0.0133333
       vertex 0.00568065 0.00822984 -1.79374e-18
    endloop
  endfacet
  facet normal 0.087883 0.836152 -0.541412
    outer loop
       vertex -0.00198604 0.0188959 0.0133333
       vertex 0.00587132 0.0180701 0.0133333
       vertex 0.00120537 0.00992709 -2.16366e-18
    endloop
  endfacet
  facet normal -0.251057 0.772675 -0.583046
    outer loop
       vertex -0.0131204 0.0345956 0.04
       vertex -0.0029268 0.0278466 0.0266667
       vertex -0.014 0.0242487 0.0266667
    endloop
  endfacet
  facet normal -0.257879 0.79367 -0.550987
    outer loop
       vertex -0.0095 0.0164545 0.0133333
       vertex -0.0029268 0.0278466 0.0266667
       vertex -0.00198604 0.0188959 0.0133333
    endloop
  endfacet
  facet normal -0.198409 0.804978 -0.559146
    outer loop
       vertex -0.00445986 0.0367302 0.04
       vertex -0.0029268 0.0278466 0.0266667
       vertex -0.0131204 0.0345956 0.04
    endloop
  endfacet
  facet normal 0 0.832202 -0.554472
    outer loop
       vertex 0.00445986 0.0367302 0.04
       vertex -0.0029268 0.0278466 0.0266667
       vertex -0.00445986 0.0367302 0.04
    endloop
  endfacet
  facet normal -0.257879 0.79367 -0.550987
    outer loop
       vertex -0.014 0.0242487 0.0266667
       vertex -0.0029268 0.0278466 0.0266667
       vertex -0.0095 0.0164545 0.0133333
    endloop
  endfacet
  facet normal 0.548246 0.618842 -0.562549
    outer loop
       vertex 0.00568065 0.00822984 -1.79374e-18
       vertex 0.0127135 0.0141198 0.0133333
       vertex 0.00748511 0.00663123 -1.44531e-18
    endloop
  endfacet
  facet normal 0.419932 0.727343 -0.542797
    outer loop
       vertex 0.00587132 0.0180701 0.0133333
       vertex 0.0127135 0.0141198 0.0133333
       vertex 0.00568065 0.00822984 -1.79374e-18
    endloop
  endfacet
  facet normal 0.0872305 0.829942 -0.550987
    outer loop
       vertex -0.0029268 0.0278466 0.0266667
       vertex 0.00865248 0.0266296 0.0266667
       vertex -0.00198604 0.0188959 0.0133333
    endloop
  endfacet
  facet normal 0.199709 0.810252 -0.551007
    outer loop
       vertex 0.0131204 0.0345956 0.04
       vertex 0.00865248 0.0266296 0.0266667
       vertex 0.00445986 0.0367302 0.04
    endloop
  endfacet
  facet normal 0.383444 0.730592 -0.564983
    outer loop
       vertex 0.0210184 0.0304504 0.04
       vertex 0.00865248 0.0266296 0.0266667
       vertex 0.0131204 0.0345956 0.04
    endloop
  endfacet
  facet normal 0.0848072 0.806886 -0.584588
    outer loop
       vertex 0.00445986 0.0367302 0.04
       vertex 0.00865248 0.0266296 0.0266667
       vertex -0.0029268 0.0278466 0.0266667
    endloop
  endfacet
  facet normal 0.0872304 0.829942 -0.550987
    outer loop
       vertex -0.00198604 0.0188959 0.0133333
       vertex 0.00865248 0.0266296 0.0266667
       vertex 0.00587132 0.0180701 0.0133333
    endloop
  endfacet
  facet normal 0.417257 0.72271 -0.550987
    outer loop
       vertex 0.00587132 0.0180701 0.0133333
       vertex 0.00865248 0.0266296 0.0266667
       vertex 0.0127135 0.0141198 0.0133333
    endloop
  endfacet
  facet normal 0.688107 0.474966 -0.548558
    outer loop
       vertex 0.00748511 0.00663123 -1.44531e-18
       vertex 0.0173574 0.007728 0.0133333
       vertex 0.00885456 0.00464723 -1.01289e-18
    endloop
  endfacet
  facet normal 0.773836 0.293477 -0.561293
    outer loop
       vertex 0.00885456 0.00464723 -1.01289e-18
       vertex 0.0173574 0.007728 0.0133333
       vertex 0.00970942 0.00239316 -5.21601e-19
    endloop
  endfacet
  facet normal 0.822275 0.17478 -0.541586
    outer loop
       vertex 0.00970942 0.00239316 -5.21601e-19
       vertex 0.0173574 0.007728 0.0133333
       vertex 0.019 -2.96059e-18 0.0133333
    endloop
  endfacet
  facet normal 0.679133 0.493419 -0.54343
    outer loop
       vertex 0.0127135 0.0141198 0.0133333
       vertex 0.0173574 0.007728 0.0133333
       vertex 0.00748511 0.00663123 -1.44531e-18
    endloop
  endfacet
  facet normal 0.554762 0.626197 -0.547829
    outer loop
       vertex 0.0276949 0.0245355 0.04
       vertex 0.0187357 0.0208081 0.0266667
       vertex 0.0210184 0.0304504 0.04
    endloop
  endfacet
  facet normal 0.407327 0.705512 -0.579946
    outer loop
       vertex 0.0210184 0.0304504 0.04
       vertex 0.0187357 0.0208081 0.0266667
       vertex 0.00865248 0.0266296 0.0266667
    endloop
  endfacet
  facet normal 0.417257 0.72271 -0.550987
    outer loop
       vertex 0.00865248 0.0266296 0.0266667
       vertex 0.0187357 0.0208081 0.0266667
       vertex 0.0127135 0.0141198 0.0133333
    endloop
  endfacet
  facet normal 0.816277 0.173505 -0.550987
    outer loop
       vertex 0.0173574 0.007728 0.0133333
       vertex 0.0255793 0.0113886 0.0266667
       vertex 0.019 -2.96059e-18 0.0133333
    endloop
  endfacet
  facet normal 0.816278 0.173505 -0.550987
    outer loop
       vertex 0.019 -2.96059e-18 0.0133333
       vertex 0.0255793 0.0113886 0.0266667
       vertex 0.028 -5.92119e-18 0.0266667
    endloop
  endfacet
  facet normal 0.677158 0.467408 -0.568319
    outer loop
       vertex 0.0327619 0.0171948 0.04
       vertex 0.0255793 0.0113886 0.0266667
       vertex 0.0276949 0.0245355 0.04
    endloop
  endfacet
  facet normal 0.781053 0.296214 -0.549739
    outer loop
       vertex 0.0359248 0.00885468 0.04
       vertex 0.0255793 0.0113886 0.0266667
       vertex 0.0327619 0.0171948 0.04
    endloop
  endfacet
  facet normal 0.794008 0.168771 -0.58401
    outer loop
       vertex 0.028 -5.92119e-18 0.0266667
       vertex 0.0255793 0.0113886 0.0266667
       vertex 0.0359248 0.00885468 0.04
    endloop
  endfacet
  facet normal 0.675136 0.490515 -0.550987
    outer loop
       vertex 0.0127135 0.0141198 0.0133333
       vertex 0.0255793 0.0113886 0.0266667
       vertex 0.0173574 0.007728 0.0133333
    endloop
  endfacet
  facet normal 0.660302 0.479737 -0.577801
    outer loop
       vertex 0.0276949 0.0245355 0.04
       vertex 0.0255793 0.0113886 0.0266667
       vertex 0.0187357 0.0208081 0.0266667
    endloop
  endfacet
  facet normal 0.675136 0.490515 -0.550987
    outer loop
       vertex 0.0187357 0.0208081 0.0266667
       vertex 0.0255793 0.0113886 0.0266667
       vertex 0.0127135 0.0141198 0.0133333
    endloop
  endfacet
  facet normal 0.992709 -0.120537 -2.67645e-17
    outer loop
       vertex 0.037 -8.88178e-18 0.04
       vertex 0.037 -1.64313e-16 0.74
       vertex 0.0359248 -0.00885468 0.04
    endloop
  endfacet
  facet normal 0.935016 -0.354605 0
    outer loop
       vertex 0.0359248 -0.00885468 0.04
       vertex 0.0359248 -0.00885468 0.74
       vertex 0.0327619 -0.0171948 0.04
    endloop
  endfacet
  facet normal 0.992709 -0.120537 9.59733e-21
    outer loop
       vertex 0.037 -1.64313e-16 0.74
       vertex 0.0359248 -0.00885468 0.74
       vertex 0.0359248 -0.00885468 0.04
    endloop
  endfacet
  facet normal 0.935016 -0.354605 3.18313e-20
    outer loop
       vertex 0.0359248 -0.00885468 0.74
       vertex 0.0327619 -0.0171948 0.74
       vertex 0.0327619 -0.0171948 0.04
    endloop
  endfacet
  facet normal 0.822984 -0.568065 -2.60171e-19
    outer loop
       vertex 0.0327619 -0.0171948 0.04
       vertex 0.0276949 -0.0245355 0.74
       vertex 0.0276949 -0.0245355 0.04
    endloop
  endfacet
  facet normal 0.663123 -0.748511 0
    outer loop
       vertex 0.0276949 -0.0245355 0.04
       vertex 0.0276949 -0.0245355 0.74
       vertex 0.0210184 -0.0304504 0.04
    endloop
  endfacet
  facet normal 0.822984 -0.568065 0
    outer loop
       vertex 0.0327619 -0.0171948 0.74
       vertex 0.0276949 -0.0245355 0.74
       vertex 0.0327619 -0.0171948 0.04
    endloop
  endfacet
  facet normal 0.663123 -0.748511 -1.87134e-19
    outer loop
       vertex 0.0276949 -0.0245355 0.74
       vertex 0.0210184 -0.0304504 0.74
       vertex 0.0210184 -0.0304504 0.04
    endloop
  endfacet
  facet normal 0.464723 -0.885456 2.7907e-19
    outer loop
       vertex 0.0210184 -0.0304504 0.04
       vertex 0.0131204 -0.0345956 0.74
       vertex 0.0131204 -0.0345956 0.04
    endloop
  endfacet
  facet normal 0.239316 -0.970942 0
    outer loop
       vertex 0.0131204 -0.0345956 0.04
       vertex 0.0131204 -0.0345956 0.74
       vertex 0.00445986 -0.0367302 0.04
    endloop
  endfacet
  facet normal 0.464723 -0.885456 0
    outer loop
       vertex 0.0210184 -0.0304504 0.74
       vertex 0.0131204 -0.0345956 0.74
       vertex 0.0210184 -0.0304504 0.04
    endloop
  endfacet
  facet normal 0 -1 0
    outer loop
       vertex 0.00445986 -0.0367302 0.04
       vertex 0.00445986 -0.0367302 0.74
       vertex -0.00445986 -0.0367302 0.04
    endloop
  endfacet
  facet normal 0.239316 -0.970942 1.8907e-19
    outer loop
       vertex 0.0131204 -0.0345956 0.74
       vertex 0.00445986 -0.0367302 0.74
       vertex 0.00445986 -0.0367302 0.04
    endloop
  endfacet
  facet normal -0 -1 0
    outer loop
       vertex 0.00445986 -0.0367302 0.74
       vertex -0.00445986 -0.0367302 0.74
       vertex -0.00445986 -0.0367302 0.04
    endloop
  endfacet
  facet normal -0.239316 -0.970942 -1.8907e-19
    outer loop
       vertex -0.00445986 -0.0367302 0.04
       vertex -0.0131204 -0.0345956 0.74
       vertex -0.0131204 -0.0345956 0.04
    endloop
  endfacet
  facet normal -0.239316 -0.970942 -0
    outer loop
       vertex -0.00445986 -0.0367302 0.74
       vertex -0.0131204 -0.0345956 0.74
       vertex -0.00445986 -0.0367302 0.04
    endloop
  endfacet
  facet normal -0.464723 -0.885456 -2.7907e-19
    outer loop
       vertex -0.0131204 -0.0345956 0.04
       vertex -0.0210184 -0.0304504 0.74
       vertex -0.0210184 -0.0304504 0.04
    endloop
  endfacet
  facet normal -0.663123 -0.748511 0
    outer loop
       vertex -0.0210184 -0.0304504 0.04
       vertex -0.0210184 -0.0304504 0.74
       vertex -0.0276949 -0.0245355 0.04
    endloop
  endfacet
  facet normal -0.464723 -0.885456 -0
    outer loop
       vertex -0.0131204 -0.0345956 0.74
       vertex -0.0210184 -0.0304504 0.74
       vertex -0.0131204 -0.0345956 0.04
    endloop
  endfacet
  facet normal -0.663123 -0.748511 1.87134e-19
    outer loop
       vertex -0.0210184 -0.0304504 0.74
       vertex -0.0276949 -0.0245355 0.74
       vertex -0.0276949 -0.0245355 0.04
    endloop
  endfacet
  facet normal -0.822984 -0.568065 -0
    outer loop
       vertex -0.0276949 -0.0245355 0.74
       vertex -0.0327619 -0.0171948 0.74
       vertex -0.0276949 -0.0245355 0.04
    endloop
  endfacet
  facet normal -0.822984 -0.568065 2.60171e-19
    outer loop
       vertex -0.0276949 -0.0245355 0.04
       vertex -0.0327619 -0.0171948 0.74
       vertex -0.0327619 -0.0171948 0.04
    endloop
  endfacet
  facet normal -0.935016 -0.354605 -0
    outer loop
       vertex -0.0327619 -0.0171948 0.74
       vertex -0.0359248 -0.00885468 0.74
       vertex -0.0327619 -0.0171948 0.04
    endloop
  endfacet
  facet normal -0.935016 -0.354605 -3.18313e-20
    outer loop
       vertex -0.0327619 -0.0171948 0.04
       vertex -0.0359248 -0.00885468 0.74
       vertex -0.0359248 -0.00885468 0.04
    endloop
  endfacet
  facet normal -0.992709 -0.120537 -0
    outer loop
       vertex -0.0359248 -0.00885468 0.74
       vertex -0.037 1.26893e-16 0.74
       vertex -0.0359248 -0.00885468 0.04
    endloop
  endfacet
  facet normal -0.992709 -0.120537 2.65864e-17
    outer loop
       vertex -0.0359248 -0.00885468 0.04
       vertex -0.037 1.26893e-16 0.74
       vertex -0.037 -2.84756e-17 0.04
    endloop
  endfacet
  facet normal -0.992709 0.120537 6.55517e-20
    outer loop
       vertex -0.037 -2.84756e-17 0.04
       vertex -0.0359248 0.00885468 0.74
       vertex -0.0359248 0.00885468 0.04
    endloop
  endfacet
  facet normal -0.992709 0.120537 -2.67538e-17
    outer loop
       vertex -0.037 1.26893e-16 0.74
       vertex -0.0359248 0.00885468 0.74
       vertex -0.037 -2.84756e-17 0.04
    endloop
  endfacet
  facet normal -0.935016 0.354605 0
    outer loop
       vertex -0.0359248 0.00885468 0.04
       vertex -0.0359248 0.00885468 0.74
       vertex -0.0327619 0.0171948 0.04
    endloop
  endfacet
  facet normal -0.935016 0.354605 3.18313e-20
    outer loop
       vertex -0.0359248 0.00885468 0.74
       vertex -0.0327619 0.0171948 0.74
       vertex -0.0327619 0.0171948 0.04
    endloop
  endfacet
  facet normal -0.822984 0.568065 -2.60171e-19
    outer loop
       vertex -0.0327619 0.0171948 0.04
       vertex -0.0276949 0.0245355 0.74
       vertex -0.0276949 0.0245355 0.04
    endloop
  endfacet
  facet normal -0.822984 0.568065 0
    outer loop
       vertex -0.0327619 0.0171948 0.74
       vertex -0.0276949 0.0245355 0.74
       vertex -0.0327619 0.0171948 0.04
    endloop
  endfacet
  facet normal -0.663123 0.748511 -1.87134e-19
    outer loop
       vertex -0.0276949 0.0245355 0.04
       vertex -0.0210184 0.0304504 0.74
       vertex -0.0210184 0.0304504 0.04
    endloop
  endfacet
  facet normal -0.663123 0.748511 0
    outer loop
       vertex -0.0276949 0.0245355 0.74
       vertex -0.0210184 0.0304504 0.74
       vertex -0.0276949 0.0245355 0.04
    endloop
  endfacet
  facet normal -0.464723 0.885456 2.7907e-19
    outer loop
       vertex -0.0210184 0.0304504 0.04
       vertex -0.0131204 0.0345956 0.74
       vertex -0.0131204 0.0345956 0.04
    endloop
  endfacet
  facet normal -0.239316 0.970942 0
    outer loop
       vertex -0.0131204 0.0345956 0.04
       vertex -0.0131204 0.0345956 0.74
       vertex -0.00445986 0.0367302 0.04
    endloop
  endfacet
  facet normal -0.464723 0.885456 0
    outer loop
       vertex -0.0210184 0.0304504 0.74
       vertex -0.0131204 0.0345956 0.74
       vertex -0.0210184 0.0304504 0.04
    endloop
  endfacet
  facet normal -0.239316 0.970942 1.8907e-19
    outer loop
       vertex -0.0131204 0.0345956 0.74
       vertex -0.00445986 0.0367302 0.74
       vertex -0.00445986 0.0367302 0.04
    endloop
  endfacet
  facet normal 0 1 0
    outer loop
       vertex -0.00445986 0.0367302 0.04
       vertex -0.00445986 0.0367302 0.74
       vertex 0.00445986 0.0367302 0.04
    endloop
  endfacet
  facet normal -0 1 0
    outer loop
       vertex -0.00445986 0.0367302 0.74
       vertex 0.00445986 0.0367302 0.74
       vertex 0.00445986 0.0367302 0.04
    endloop
  endfacet
  facet normal 0.239316 0.970942 -1.8907e-19
    outer loop
       vertex 0.00445986 0.0367302 0.04
       vertex 0.0131204 0.0345956 0.74
       vertex 0.0131204 0.0345956 0.04
    endloop
  endfacet
  facet normal 0.239316 0.970942 0
    outer loop
       vertex 0.00445986 0.0367302 0.74
       vertex 0.0131204 0.0345956 0.74
       vertex 0.00445986 0.0367302 0.04
    endloop
  endfacet
  facet normal 0.464723 0.885456 -2.7907e-19
    outer loop
       vertex 0.0131204 0.0345956 0.04
       vertex 0.0210184 0.0304504 0.74
       vertex 0.0210184 0.0304504 0.04
    endloop
  endfacet
  facet normal 0.464723 0.885456 0
    outer loop
       vertex 0.0131204 0.0345956 0.74
       vertex 0.0210184 0.0304504 0.74
       vertex 0.0131204 0.0345956 0.04
    endloop
  endfacet
  facet normal 0.663123 0.748511 1.87134e-19
    outer loop
       vertex 0.0210184 0.0304504 0.04
       vertex 0.0276949 0.0245355 0.74
       vertex 0.0276949 0.0245355 0.04
    endloop
  endfacet
  facet normal 0.822984 0.568065 -0
    outer loop
       vertex 0.0276949 0.0245355 0.04
       vertex 0.0276949 0.0245355 0.74
       vertex 0.0327619 0.0171948 0.04
    endloop
  endfacet
  facet normal 0.663123 0.748511 0
    outer loop
       vertex 0.0210184 0.0304504 0.74
       vertex 0.0276949 0.0245355 0.74
       vertex 0.0210184 0.0304504 0.04
    endloop
  endfacet
  facet normal 0.935016 0.354605 -0
    outer loop
       vertex 0.0327619 0.0171948 0.04
       vertex 0.0327619 0.0171948 0.74
       vertex 0.0359248 0.00885468 0.04
    endloop
  endfacet
  facet normal 0.822984 0.568065 2.60171e-19
    outer loop
       vertex 0.0276949 0.0245355 0.74
       vertex 0.0327619 0.0171948 0.74
       vertex 0.0327619 0.0171948 0.04
    endloop
  endfacet
  facet normal 0.992709 0.120537 -0
    outer loop
       vertex 0.0359248 0.00885468 0.04
       vertex 0.0359248 0.00885468 0.74
       vertex 0.037 -8.88178e-18 0.04
    endloop
  endfacet
  facet normal 0.935016 0.354605 -3.18313e-20
    outer loop
       vertex 0.0327619 0.0171948 0.74
       vertex 0.0359248 0.00885468 0.74
       vertex 0.0359248 0.00885468 0.04
    endloop
  endfacet
  facet normal 0.992709 0.120537 2.68251e-17
    outer loop
       vertex 0.0359248 0.00885468 0.74
       vertex 0.037 -1.64313e-16 0.74
       vertex 0.037 -8.88178e-18 0.04
    endloop
  endfacet
  facet normal 0 0 1
    outer loop
       vertex 0.0069872 0.0101227 0.74
       vertex 0.0276949 0.0245355 0.74
       vertex 0.0210184 0.0304504 0.74
    endloop
  endfacet
  facet normal -0 0 1
    outer loop
       vertex 0.0069872 0.0101227 0.74
       vertex 0.00920668 0.00815641 0.74
       vertex 0.0276949 0.0245355 0.74
    endloop
  endfacet
  facet normal 0 0 1
    outer loop
       vertex 0.0108911 0.00571609 0.74
       vertex 0.0327619 0.0171948 0.74
       vertex 0.0276949 0.0245355 0.74
    endloop
  endfacet
  facet normal 0 -0 1
    outer loop
       vertex 0.0108911 0.00571609 0.74
       vertex 0.0276949 0.0245355 0.74
       vertex 0.00920668 0.00815641 0.74
    endloop
  endfacet
  facet normal 0 0 1
    outer loop
       vertex 0.00436164 0.0115007 0.74
       vertex 0.0210184 0.0304504 0.74
       vertex 0.0131204 0.0345956 0.74
    endloop
  endfacet
  facet normal -0 0 1
    outer loop
       vertex 0.00436164 0.0115007 0.74
       vertex 0.0069872 0.0101227 0.74
       vertex 0.0210184 0.0304504 0.74
    endloop
  endfacet
  facet normal 0 0 1
    outer loop
       vertex 0.0119426 0.00294358 0.74
       vertex 0.0359248 0.00885468 0.74
       vertex 0.0327619 0.0171948 0.74
    endloop
  endfacet
  facet normal 0 -0 1
    outer loop
       vertex 0.0119426 0.00294358 0.74
       vertex 0.0327619 0.0171948 0.74
       vertex 0.0108911 0.00571609 0.74
    endloop
  endfacet
  facet normal 0 0 1
    outer loop
       vertex 0.0014826 0.0122103 0.74
       vertex 0.0131204 0.0345956 0.74
       vertex 0.00445986 0.0367302 0.74
    endloop
  endfacet
  facet normal -0 0 1
    outer loop
       vertex 0.0014826 0.0122103 0.74
       vertex 0.00436164 0.0115007 0.74
       vertex 0.0131204 0.0345956 0.74
    endloop
  endfacet
  facet normal 0 0 1
    outer loop
       vertex 0.0123 -1.64313e-16 0.74
       vertex 0.037 -1.64313e-16 0.74
       vertex 0.0359248 0.00885468 0.74
    endloop
  endfacet
  facet normal 0 -0 1
    outer loop
       vertex 0.0123 -1.64313e-16 0.74
       vertex 0.0359248 0.00885468 0.74
       vertex 0.0119426 0.00294358 0.74
    endloop
  endfacet
  facet normal 0 -0 1
    outer loop
       vertex -0.0014826 0.0122103 0.74
       vertex 0.00445986 0.0367302 0.74
       vertex -0.00445986 0.0367302 0.74
    endloop
  endfacet
  facet normal 0 0 1
    outer loop
       vertex -0.0014826 0.0122103 0.74
       vertex 0.0014826 0.0122103 0.74
       vertex 0.00445986 0.0367302 0.74
    endloop
  endfacet
  facet normal -0 0 1
    outer loop
       vertex 0.0119426 -0.00294358 0.74
       vertex 0.0359248 -0.00885468 0.74
       vertex 0.037 -1.64313e-16 0.74
    endloop
  endfacet
  facet normal 0 0 1
    outer loop
       vertex 0.0119426 -0.00294358 0.74
       vertex 0.037 -1.64313e-16 0.74
       vertex 0.0123 -1.64313e-16 0.74
    endloop
  endfacet
  facet normal 0 0 1
    outer loop
       vertex -0.00436164 0.0115007 0.74
       vertex -0.00445986 0.0367302 0.74
       vertex -0.0131204 0.0345956 0.74
    endloop
  endfacet
  facet normal 0 -0 1
    outer loop
       vertex -0.00436164 0.0115007 0.74
       vertex -0.0014826 0.0122103 0.74
       vertex -0.00445986 0.0367302 0.74
    endloop
  endfacet
  facet normal 0 0 1
    outer loop
       vertex 0.0108911 -0.00571609 0.74
       vertex 0.0327619 -0.0171948 0.74
       vertex 0.0359248 -0.00885468 0.74
    endloop
  endfacet
  facet normal -0 0 1
    outer loop
       vertex 0.0108911 -0.00571609 0.74
       vertex 0.0359248 -0.00885468 0.74
       vertex 0.0119426 -0.00294358 0.74
    endloop
  endfacet
  facet normal 0 0 1
    outer loop
       vertex -0.0069872 0.0101227 0.74
       vertex -0.0131204 0.0345956 0.74
       vertex -0.0210184 0.0304504 0.74
    endloop
  endfacet
  facet normal 0 -0 1
    outer loop
       vertex -0.0069872 0.0101227 0.74
       vertex -0.00436164 0.0115007 0.74
       vertex -0.0131204 0.0345956 0.74
    endloop
  endfacet
  facet normal 0 0 1
    outer loop
       vertex 0.00920668 -0.00815641 0.74
       vertex 0.0276949 -0.0245355 0.74
       vertex 0.0327619 -0.0171948 0.74
    endloop
  endfacet
  facet normal -0 0 1
    outer loop
       vertex 0.00920668 -0.00815641 0.74
       vertex 0.0327619 -0.0171948 0.74
       vertex 0.0108911 -0.00571609 0.74
    endloop
  endfacet
  facet normal 0 0 1
    outer loop
       vertex -0.0276949 0.0245355 0.74
       vertex -0.00920668 0.00815641 0.74
       vertex -0.0069872 0.0101227 0.74
    endloop
  endfacet
  facet normal -0 0 1
    outer loop
       vertex -0.0276949 0.0245355 0.74
       vertex -0.0069872 0.0101227 0.74
       vertex -0.0210184 0.0304504 0.74
    endloop
  endfacet
  facet normal 0 0 1
    outer loop
       vertex 0.0210184 -0.0304504 0.74
       vertex 0.00920668 -0.00815641 0.74
       vertex 0.0069872 -0.0101227 0.74
    endloop
  endfacet
  facet normal 0 -0 1
    outer loop
       vertex 0.0210184 -0.0304504 0.74
       vertex 0.0276949 -0.0245355 0.74
       vertex 0.00920668 -0.00815641 0.74
    endloop
  endfacet
  facet normal -0 0 1
    outer loop
       vertex -0.0327619 0.0171948 0.74
       vertex -0.00920668 0.00815641 0.74
       vertex -0.0276949 0.0245355 0.74
    endloop
  endfacet
  facet normal 0 0 1
    outer loop
       vertex -0.0327619 0.0171948 0.74
       vertex -0.0108911 0.00571609 0.74
       vertex -0.00920668 0.00815641 0.74
    endloop
  endfacet
  facet normal 0 -0 1
    outer loop
       vertex 0.0131204 -0.0345956 0.74
       vertex 0.0210184 -0.0304504 0.74
       vertex 0.0069872 -0.0101227 0.74
    endloop
  endfacet
  facet normal 0 0 1
    outer loop
       vertex 0.0131204 -0.0345956 0.74
       vertex 0.0069872 -0.0101227 0.74
       vertex 0.00436164 -0.0115007 0.74
    endloop
  endfacet
  facet normal -0 0 1
    outer loop
       vertex -0.0359248 0.00885468 0.74
       vertex -0.0108911 0.00571609 0.74
       vertex -0.0327619 0.0171948 0.74
    endloop
  endfacet
  facet normal 0 0 1
    outer loop
       vertex -0.0359248 0.00885468 0.74
       vertex -0.0119426 0.00294358 0.74
       vertex -0.0108911 0.00571609 0.74
    endloop
  endfacet
  facet normal 0 0 1
    outer loop
       vertex 0.00445986 -0.0367302 0.74
       vertex 0.00436164 -0.0115007 0.74
       vertex 0.0014826 -0.0122103 0.74
    endloop
  endfacet
  facet normal 0 0 1
    outer loop
       vertex 0.00445986 -0.0367302 0.74
       vertex 0.0014826 -0.0122103 0.74
       vertex -0.0014826 -0.0122103 0.74
    endloop
  endfacet
  facet normal 0 -0 1
    outer loop
       vertex 0.00445986 -0.0367302 0.74
       vertex 0.0131204 -0.0345956 0.74
       vertex 0.00436164 -0.0115007 0.74
    endloop
  endfacet
  facet normal -0 0 1
    outer loop
       vertex -0.037 1.26893e-16 0.74
       vertex -0.0119426 -0.00294358 0.74
       vertex -0.0123 1.51856e-16 0.74
    endloop
  endfacet
  facet normal 0 0 1
    outer loop
       vertex -0.037 1.26893e-16 0.74
       vertex -0.0123 1.51856e-16 0.74
       vertex -0.0119426 0.00294358 0.74
    endloop
  endfacet
  facet normal 0 0 1
    outer loop
       vertex -0.037 1.26893e-16 0.74
       vertex -0.0119426 0.00294358 0.74
       vertex -0.0359248 0.00885468 0.74
    endloop
  endfacet
  facet normal 0 0 1
    outer loop
       vertex -0.00445986 -0.0367302 0.74
       vertex 0.00445986 -0.0367302 0.74
       vertex -0.0014826 -0.0122103 0.74
    endloop
  endfacet
  facet normal 0 -0 1
    outer loop
       vertex -0.0359248 -0.00885468 0.74
       vertex -0.0119426 -0.00294358 0.74
       vertex -0.037 1.26893e-16 0.74
    endloop
  endfacet
  facet normal 0 0 1
    outer loop
       vertex -0.0359248 -0.00885468 0.74
       vertex -0.0108911 -0.00571609 0.74
       vertex -0.0119426 -0.00294358 0.74
    endloop
  endfacet
  facet normal 0 0 1
    outer loop
       vertex -0.0131204 -0.0345956 0.74
       vertex -0.0014826 -0.0122103 0.74
       vertex -0.00436164 -0.0115007 0.74
    endloop
  endfacet
  facet normal 0 0 1
    outer loop
       vertex -0.0131204 -0.0345956 0.74
       vertex -0.00436164 -0.0115007 0.74
       vertex -0.0069872 -0.0101227 0.74
    endloop
  endfacet
  facet normal -0 0 1
    outer loop
       vertex -0.0131204 -0.0345956 0.74
       vertex -0.00445986 -0.0367302 0.74
       vertex -0.0014826 -0.0122103 0.74
    endloop
  endfacet
  facet normal 0 -0 1
    outer loop
       vertex -0.0327619 -0.0171948 0.74
       vertex -0.0108911 -0.00571609 0.74
       vertex -0.0359248 -0.00885468 0.74
    endloop
  endfacet
  facet normal 0 0 1
    outer loop
       vertex -0.0327619 -0.0171948 0.74
       vertex -0.00920668 -0.00815641 0.74
       vertex -0.0108911 -0.00571609 0.74
    endloop
  endfacet
  facet normal 0 0 1
    outer loop
       vertex -0.0210184 -0.0304504 0.74
       vertex -0.0069872 -0.0101227 0.74
       vertex -0.00920668 -0.00815641 0.74
    endloop
  endfacet
  facet normal -0 0 1
    outer loop
       vertex -0.0210184 -0.0304504 0.74
       vertex -0.0131204 -0.0345956 0.74
       vertex -0.0069872 -0.0101227 0.74
    endloop
  endfacet
  facet normal 0 -0 1
    outer loop
       vertex -0.0276949 -0.0245355 0.74
       vertex -0.00920668 -0.00815641 0.74
       vertex -0.0327619 -0.0171948 0.74
    endloop
  endfacet
  facet normal -0 0 1
    outer loop
       vertex -0.0276949 -0.0245355 0.74
       vertex -0.0210184 -0.0304504 0.74
       vertex -0.00920668 -0.00815641 0.74
    endloop
  endfacet
  facet normal 0.992709 -0.120537 -2.67645e-17
    outer loop
       vertex 0.0123 -1.64313e-16 0.74
       vertex 0.0123 -2.53131e-16 1.14
       vertex 0.0119426 -0.00294358 1.14
    endloop
  endfacet
  facet normal 0.992709 -0.120537 0
    outer loop
       vertex 0.0119426 -0.00294358 0.74
       vertex 0.0123 -1.64313e-16 0.74
       vertex 0.0119426 -0.00294358 1.14
    endloop
  endfacet
  facet normal 0.935016 -0.354605 0
    outer loop
       vertex 0.0108911 -0.00571609 0.74
       vertex 0.0119426 -0.00294358 1.14
       vertex 0.0108911 -0.00571609 1.14
    endloop
  endfacet
  facet normal 0.935016 -0.354605 1.41792e-19
    outer loop
       vertex 0.0108911 -0.00571609 0.74
       vertex 0.0119426 -0.00294358 0.74
       vertex 0.0119426 -0.00294358 1.14
    endloop
  endfacet
  facet normal 0.822984 -0.568065 0
    outer loop
       vertex 0.00920668 -0.00815641 0.74
       vertex 0.0108911 -0.00571609 1.14
       vertex 0.00920668 -0.00815641 1.14
    endloop
  endfacet
  facet normal 0.822984 -0.568065 2.27006e-19
    outer loop
       vertex 0.00920668 -0.00815641 0.74
       vertex 0.0108911 -0.00571609 0.74
       vertex 0.0108911 -0.00571609 1.14
    endloop
  endfacet
  facet normal 0.663123 -0.748511 0
    outer loop
       vertex 0.0069872 -0.0101227 0.74
       vertex 0.00920668 -0.00815641 1.14
       vertex 0.0069872 -0.0101227 1.14
    endloop
  endfacet
  facet normal 0.663123 -0.748511 5.55249e-21
    outer loop
       vertex 0.0069872 -0.0101227 0.74
       vertex 0.00920668 -0.00815641 0.74
       vertex 0.00920668 -0.00815641 1.14
    endloop
  endfacet
  facet normal 0.464723 -0.885456 0
    outer loop
       vertex 0.00436164 -0.0115007 0.74
       vertex 0.0069872 -0.0101227 1.14
       vertex 0.00436164 -0.0115007 1.14
    endloop
  endfacet
  facet normal 0.464723 -0.885456 9.65746e-20
    outer loop
       vertex 0.00436164 -0.0115007 0.74
       vertex 0.0069872 -0.0101227 0.74
       vertex 0.0069872 -0.0101227 1.14
    endloop
  endfacet
  facet normal 0.239316 -0.970942 0
    outer loop
       vertex 0.0014826 -0.0122103 0.74
       vertex 0.00436164 -0.0115007 1.14
       vertex 0.0014826 -0.0122103 1.14
    endloop
  endfacet
  facet normal 0 -1 0
    outer loop
       vertex 0.0014826 -0.0122103 0.74
       vertex 0.0014826 -0.0122103 1.14
       vertex -0.0014826 -0.0122103 1.14
    endloop
  endfacet
  facet normal 0.239316 -0.970942 2.45366e-20
    outer loop
       vertex 0.0014826 -0.0122103 0.74
       vertex 0.00436164 -0.0115007 0.74
       vertex 0.00436164 -0.0115007 1.14
    endloop
  endfacet
  facet normal -0.239316 -0.970942 0
    outer loop
       vertex -0.0014826 -0.0122103 0.74
       vertex -0.0014826 -0.0122103 1.14
       vertex -0.00436164 -0.0115007 1.14
    endloop
  endfacet
  facet normal 0 -1 0
    outer loop
       vertex -0.0014826 -0.0122103 0.74
       vertex 0.0014826 -0.0122103 0.74
       vertex -0.0014826 -0.0122103 1.14
    endloop
  endfacet
  facet normal -0.239316 -0.970942 0
    outer loop
       vertex -0.00436164 -0.0115007 0.74
       vertex -0.0014826 -0.0122103 0.74
       vertex -0.00436164 -0.0115007 1.14
    endloop
  endfacet
  facet normal -0.464723 -0.885456 0
    outer loop
       vertex -0.0069872 -0.0101227 0.74
       vertex -0.00436164 -0.0115007 1.14
       vertex -0.0069872 -0.0101227 1.14
    endloop
  endfacet
  facet normal -0.464723 -0.885456 -9.65746e-20
    outer loop
       vertex -0.0069872 -0.0101227 0.74
       vertex -0.00436164 -0.0115007 0.74
       vertex -0.00436164 -0.0115007 1.14
    endloop
  endfacet
  facet normal -0.663123 -0.748511 0
    outer loop
       vertex -0.00920668 -0.00815641 0.74
       vertex -0.0069872 -0.0101227 1.14
       vertex -0.00920668 -0.00815641 1.14
    endloop
  endfacet
  facet normal -0.663123 -0.748511 -5.55249e-21
    outer loop
       vertex -0.00920668 -0.00815641 0.74
       vertex -0.0069872 -0.0101227 0.74
       vertex -0.0069872 -0.0101227 1.14
    endloop
  endfacet
  facet normal -0.822984 -0.568065 0
    outer loop
       vertex -0.0108911 -0.00571609 0.74
       vertex -0.00920668 -0.00815641 1.14
       vertex -0.0108911 -0.00571609 1.14
    endloop
  endfacet
  facet normal -0.935016 -0.354605 0
    outer loop
       vertex -0.0108911 -0.00571609 0.74
       vertex -0.0108911 -0.00571609 1.14
       vertex -0.0119426 -0.00294358 1.14
    endloop
  endfacet
  facet normal -0.822984 -0.568065 -2.27006e-19
    outer loop
       vertex -0.0108911 -0.00571609 0.74
       vertex -0.00920668 -0.00815641 0.74
       vertex -0.00920668 -0.00815641 1.14
    endloop
  endfacet
  facet normal -0.935016 -0.354605 0
    outer loop
       vertex -0.0119426 -0.00294358 0.74
       vertex -0.0108911 -0.00571609 0.74
       vertex -0.0119426 -0.00294358 1.14
    endloop
  endfacet
  facet normal -0.992709 -0.120537 0
    outer loop
       vertex -0.0119426 -0.00294358 0.74
       vertex -0.0119426 -0.00294358 1.14
       vertex -0.0123 2.40738e-16 1.14
    endloop
  endfacet
  facet normal -0.992709 -0.120537 2.67839e-17
    outer loop
       vertex -0.0123 1.51856e-16 0.74
       vertex -0.0119426 -0.00294358 0.74
       vertex -0.0123 2.40738e-16 1.14
    endloop
  endfacet
  facet normal -0.992709 0.120537 0
    outer loop
       vertex -0.0119426 0.00294358 0.74
       vertex -0.0123 2.40738e-16 1.14
       vertex -0.0119426 0.00294358 1.14
    endloop
  endfacet
  facet normal -0.992709 0.120537 -2.68403e-17
    outer loop
       vertex -0.0119426 0.00294358 0.74
       vertex -0.0123 1.51856e-16 0.74
       vertex -0.0123 2.40738e-16 1.14
    endloop
  endfacet
  facet normal -0.935016 0.354605 1.41792e-19
    outer loop
       vertex -0.0108911 0.00571609 0.74
       vertex -0.0119426 0.00294358 0.74
       vertex -0.0119426 0.00294358 1.14
    endloop
  endfacet
  facet normal -0.935016 0.354605 0
    outer loop
       vertex -0.0108911 0.00571609 0.74
       vertex -0.0119426 0.00294358 1.14
       vertex -0.0108911 0.00571609 1.14
    endloop
  endfacet
  facet normal -0.822984 0.568065 0
    outer loop
       vertex -0.00920668 0.00815641 0.74
       vertex -0.0108911 0.00571609 1.14
       vertex -0.00920668 0.00815641 1.14
    endloop
  endfacet
  facet normal -0.822984 0.568065 2.27006e-19
    outer loop
       vertex -0.00920668 0.00815641 0.74
       vertex -0.0108911 0.00571609 0.74
       vertex -0.0108911 0.00571609 1.14
    endloop
  endfacet
  facet normal -0.663123 0.748511 0
    outer loop
       vertex -0.0069872 0.0101227 0.74
       vertex -0.00920668 0.00815641 1.14
       vertex -0.0069872 0.0101227 1.14
    endloop
  endfacet
  facet normal -0.663123 0.748511 5.55249e-21
    outer loop
       vertex -0.0069872 0.0101227 0.74
       vertex -0.00920668 0.00815641 0.74
       vertex -0.00920668 0.00815641 1.14
    endloop
  endfacet
  facet normal -0.464723 0.885456 0
    outer loop
       vertex -0.00436164 0.0115007 0.74
       vertex -0.0069872 0.0101227 1.14
       vertex -0.00436164 0.0115007 1.14
    endloop
  endfacet
  facet normal -0.464723 0.885456 9.65746e-20
    outer loop
       vertex -0.00436164 0.0115007 0.74
       vertex -0.0069872 0.0101227 0.74
       vertex -0.0069872 0.0101227 1.14
    endloop
  endfacet
  facet normal -0.239316 0.970942 0
    outer loop
       vertex -0.0014826 0.0122103 0.74
       vertex -0.00436164 0.0115007 1.14
       vertex -0.0014826 0.0122103 1.14
    endloop
  endfacet
  facet normal -0.239316 0.970942 2.45366e-20
    outer loop
       vertex -0.0014826 0.0122103 0.74
       vertex -0.00436164 0.0115007 0.74
       vertex -0.00436164 0.0115007 1.14
    endloop
  endfacet
  facet normal 0 1 -0
    outer loop
       vertex 0.0014826 0.0122103 0.74
       vertex -0.0014826 0.0122103 1.14
       vertex 0.0014826 0.0122103 1.14
    endloop
  endfacet
  facet normal 0 1 0
    outer loop
       vertex 0.0014826 0.0122103 0.74
       vertex -0.0014826 0.0122103 0.74
       vertex -0.0014826 0.0122103 1.14
    endloop
  endfacet
  facet normal 0.239316 0.970942 -0
    outer loop
       vertex 0.00436164 0.0115007 0.74
       vertex 0.0014826 0.0122103 1.14
       vertex 0.00436164 0.0115007 1.14
    endloop
  endfacet
  facet normal 0.239316 0.970942 -2.45366e-20
    outer loop
       vertex 0.00436164 0.0115007 0.74
       vertex 0.0014826 0.0122103 0.74
       vertex 0.0014826 0.0122103 1.14
    endloop
  endfacet
  facet normal 0.464723 0.885456 -0
    outer loop
       vertex 0.0069872 0.0101227 0.74
       vertex 0.00436164 0.0115007 1.14
       vertex 0.0069872 0.0101227 1.14
    endloop
  endfacet
  facet normal 0.663123 0.748511 -0
    outer loop
       vertex 0.0069872 0.0101227 0.74
       vertex 0.0069872 0.0101227 1.14
       vertex 0.00920668 0.00815641 1.14
    endloop
  endfacet
  facet normal 0.464723 0.885456 -9.65746e-20
    outer loop
       vertex 0.0069872 0.0101227 0.74
       vertex 0.00436164 0.0115007 0.74
       vertex 0.00436164 0.0115007 1.14
    endloop
  endfacet
  facet normal 0.663123 0.748511 -0
    outer loop
       vertex 0.00920668 0.00815641 0.74
       vertex 0.0069872 0.0101227 0.74
       vertex 0.00920668 0.00815641 1.14
    endloop
  endfacet
  facet normal 0.822984 0.568065 -0
    outer loop
       vertex 0.0108911 0.00571609 0.74
       vertex 0.00920668 0.00815641 1.14
       vertex 0.0108911 0.00571609 1.14
    endloop
  endfacet
  facet normal 0.935016 0.354605 -0
    outer loop
       vertex 0.0108911 0.00571609 0.74
       vertex 0.0108911 0.00571609 1.14
       vertex 0.0119426 0.00294358 1.14
    endloop
  endfacet
  facet normal 0.822984 0.568065 -2.27006e-19
    outer loop
       vertex 0.0108911 0.00571609 0.74
       vertex 0.00920668 0.00815641 0.74
       vertex 0.00920668 0.00815641 1.14
    endloop
  endfacet
  facet normal 0.935016 0.354605 -0
    outer loop
       vertex 0.0119426 0.00294358 0.74
       vertex 0.0108911 0.00571609 0.74
       vertex 0.0119426 0.00294358 1.14
    endloop
  endfacet
  facet normal 0.992709 0.120537 2.67645e-17
    outer loop
       vertex 0.0123 -1.64313e-16 0.74
       vertex 0.0119426 0.00294358 1.14
       vertex 0.0123 -2.53131e-16 1.14
    endloop
  endfacet
  facet normal 0.992709 0.120537 -6.08112e-20
    outer loop
       vertex 0.0123 -1.64313e-16 0.74
       vertex 0.0119426 0.00294358 0.74
       vertex 0.0119426 0.00294358 1.14
    endloop
  endfacet
  facet normal 0 0 1
    outer loop
       vertex -0.00436164 0.0115007 1.14
       vertex 0.0014826 0.0122103 1.14
       vertex -0.0014826 0.0122103 1.14
    endloop
  endfacet
  facet normal 0 0 1
    outer loop
       vertex -0.00436164 0.0115007 1.14
       vertex 0.00436164 0.0115007 1.14
       vertex 0.0014826 0.0122103 1.14
    endloop
  endfacet
  facet normal -0 0 1
    outer loop
       vertex -0.00436164 0.0115007 1.14
       vertex 0.0069872 0.0101227 1.14
       vertex 0.00436164 0.0115007 1.14
    endloop
  endfacet
  facet normal 0 0 1
    outer loop
       vertex -0.0119426 0.00294358 1.14
       vertex -0.00920668 0.00815641 1.14
       vertex -0.0108911 0.00571609 1.14
    endloop
  endfacet
  facet normal 0 0 1
    outer loop
       vertex -0.0119426 0.00294358 1.14
       vertex -0.0069872 0.0101227 1.14
       vertex -0.00920668 0.00815641 1.14
    endloop
  endfacet
  facet normal 0 -0 1
    outer loop
       vertex -0.0119426 -0.00294358 1.14
       vertex -0.0119426 0.00294358 1.14
       vertex -0.0123 2.40738e-16 1.14
    endloop
  endfacet
  facet normal 0 0 1
    outer loop
       vertex -0.0119426 -0.00294358 1.14
       vertex -0.00436164 0.0115007 1.14
       vertex -0.0069872 0.0101227 1.14
    endloop
  endfacet
  facet normal 0 0 1
    outer loop
       vertex -0.0119426 -0.00294358 1.14
       vertex 0.00920668 0.00815641 1.14
       vertex 0.0069872 0.0101227 1.14
    endloop
  endfacet
  facet normal 0 0 1
    outer loop
       vertex -0.0119426 -0.00294358 1.14
       vertex 0.0108911 0.00571609 1.14
       vertex 0.00920668 0.00815641 1.14
    endloop
  endfacet
  facet normal 0 0 1
    outer loop
       vertex -0.0119426 -0.00294358 1.14
       vertex 0.0119426 0.00294358 1.14
       vertex 0.0108911 0.00571609 1.14
    endloop
  endfacet
  facet normal 0 0 1
    outer loop
       vertex -0.0119426 -0.00294358 1.14
       vertex 0.0069872 0.0101227 1.14
       vertex -0.00436164 0.0115007 1.14
    endloop
  endfacet
  facet normal 0 0 1
    outer loop
       vertex -0.0119426 -0.00294358 1.14
       vertex -0.0069872 0.0101227 1.14
       vertex -0.0119426 0.00294358 1.14
    endloop
  endfacet
  facet normal -0 0 1
    outer loop
       vertex -0.0069872 -0.0101227 1.14
       vertex 0.00436164 -0.0115007 1.14
       vertex 0.0069872 -0.0101227 1.14
    endloop
  endfacet
  facet normal 0 0 1
    outer loop
       vertex -0.0069872 -0.0101227 1.14
       vertex 0.0014826 -0.0122103 1.14
       vertex 0.00436164 -0.0115007 1.14
    endloop
  endfacet
  facet normal 0 0 1
    outer loop
       vertex -0.0069872 -0.0101227 1.14
       vertex -0.0014826 -0.0122103 1.14
       vertex 0.0014826 -0.0122103 1.14
    endloop
  endfacet
  facet normal 0 0 1
    outer loop
       vertex -0.0069872 -0.0101227 1.14
       vertex -0.00436164 -0.0115007 1.14
       vertex -0.0014826 -0.0122103 1.14
    endloop
  endfacet
  facet normal 0 0 1
    outer loop
       vertex -0.00920668 -0.00815641 1.14
       vertex 0.0119426 -0.00294358 1.14
       vertex 0.0123 -2.53131e-16 1.14
    endloop
  endfacet
  facet normal 0 0 1
    outer loop
       vertex -0.00920668 -0.00815641 1.14
       vertex 0.0108911 -0.00571609 1.14
       vertex 0.0119426 -0.00294358 1.14
    endloop
  endfacet
  facet normal 0 0 1
    outer loop
       vertex -0.00920668 -0.00815641 1.14
       vertex 0.00920668 -0.00815641 1.14
       vertex 0.0108911 -0.00571609 1.14
    endloop
  endfacet
  facet normal -0 0 1
    outer loop
       vertex -0.00920668 -0.00815641 1.14
       vertex 0.0069872 -0.0101227 1.14
       vertex 0.00920668 -0.00815641 1.14
    endloop
  endfacet
  facet normal 0 0 1
    outer loop
       vertex -0.00920668 -0.00815641 1.14
       vertex -0.0119426 -0.00294358 1.14
       vertex -0.0108911 -0.00571609 1.14
    endloop
  endfacet
  facet normal 0 0 1
    outer loop
       vertex -0.00920668 -0.00815641 1.14
       vertex 0.0123 -2.53131e-16 1.14
       vertex 0.0119426 0.00294358 1.14
    endloop
  endfacet
  facet normal 0 -0 1
    outer loop
       vertex -0.00920668 -0.00815641 1.14
       vertex 0.0119426 0.00294358 1.14
       vertex -0.0119426 -0.00294358 1.14
    endloop
  endfacet
  facet normal 0 0 1
    outer loop
       vertex -0.00920668 -0.00815641 1.14
       vertex -0.0069872 -0.0101227 1.14
       vertex 0.0069872 -0.0101227 1.14
    endloop
  endfacet
endsolid patch0
